<svg xmlns="http://www.w3.org/2000/svg" xmlns:xlink="http://www.w3.org/1999/xlink" width="150" zoomAndPan="magnify" viewBox="0 0 112.5 112.499997" height="150" preserveAspectRatio="xMidYMid meet" version="1.0"><defs><g/><clipPath id="124465b341"><path d="M 43.792969 43 L 91.730469 43 L 91.730469 54.296875 L 43.792969 54.296875 Z M 43.792969 43 " clip-rule="nonzero"/></clipPath></defs><g fill="#000000" fill-opacity="1"><g transform="translate(20.187179, 67.056552)"><g><path d="M 2.234375 0.15625 C 2.066406 0.15625 1.929688 0.101562 1.828125 0 C 1.722656 -0.113281 1.671875 -0.265625 1.671875 -0.453125 L 1.671875 -10.125 C 1.671875 -10.3125 1.722656 -10.457031 1.828125 -10.5625 C 1.929688 -10.675781 2.066406 -10.734375 2.234375 -10.734375 C 2.421875 -10.734375 2.5625 -10.675781 2.65625 -10.5625 C 2.757812 -10.445312 2.8125 -10.300781 2.8125 -10.125 L 2.8125 -0.453125 C 2.8125 -0.273438 2.757812 -0.128906 2.65625 -0.015625 C 2.5625 0.0976562 2.421875 0.15625 2.234375 0.15625 Z M 2.234375 0.15625 "/></g></g></g><g fill="#000000" fill-opacity="1"><g transform="translate(24.675823, 67.056552)"><g><path d="M 1.765625 0.15625 C 1.597656 0.15625 1.460938 0.101562 1.359375 0 C 1.253906 -0.113281 1.203125 -0.265625 1.203125 -0.453125 L 1.203125 -8.765625 C 1.203125 -9.328125 1.367188 -9.769531 1.703125 -10.09375 C 2.046875 -10.414062 2.519531 -10.578125 3.125 -10.578125 L 5.703125 -10.578125 C 8.566406 -10.578125 10 -9.375 10 -6.96875 C 10 -5.851562 9.632812 -4.992188 8.90625 -4.390625 C 8.175781 -3.796875 7.125 -3.5 5.75 -3.5 L 2.34375 -3.5 L 2.34375 -0.453125 C 2.34375 -0.265625 2.289062 -0.113281 2.1875 0 C 2.09375 0.101562 1.953125 0.15625 1.765625 0.15625 Z M 5.75 -4.453125 C 6.726562 -4.453125 7.488281 -4.644531 8.03125 -5.03125 C 8.570312 -5.414062 8.84375 -6.0625 8.84375 -6.96875 C 8.84375 -7.914062 8.578125 -8.597656 8.046875 -9.015625 C 7.523438 -9.429688 6.765625 -9.640625 5.765625 -9.640625 L 3.140625 -9.640625 C 2.898438 -9.640625 2.707031 -9.554688 2.5625 -9.390625 C 2.414062 -9.234375 2.34375 -9.023438 2.34375 -8.765625 L 2.34375 -4.453125 Z M 5.75 -4.453125 "/></g></g></g><g fill="#000000" fill-opacity="1"><g transform="translate(35.512041, 67.056552)"><g><path d="M 1.6875 0.15625 C 1.519531 0.15625 1.382812 0.101562 1.28125 0 C 1.1875 -0.113281 1.140625 -0.265625 1.140625 -0.453125 L 1.140625 -6.359375 C 1.140625 -7.734375 1.519531 -8.804688 2.28125 -9.578125 C 3.050781 -10.347656 4.125 -10.734375 5.5 -10.734375 C 6.863281 -10.734375 7.929688 -10.34375 8.703125 -9.5625 C 9.472656 -8.789062 9.859375 -7.722656 9.859375 -6.359375 L 9.859375 -0.453125 C 9.859375 -0.265625 9.804688 -0.113281 9.703125 0 C 9.609375 0.101562 9.472656 0.15625 9.296875 0.15625 C 9.117188 0.15625 8.976562 0.101562 8.875 0 C 8.769531 -0.113281 8.71875 -0.265625 8.71875 -0.453125 L 8.71875 -3.859375 L 2.265625 -3.859375 L 2.265625 -0.453125 C 2.265625 -0.265625 2.210938 -0.113281 2.109375 0 C 2.015625 0.101562 1.875 0.15625 1.6875 0.15625 Z M 8.71875 -4.796875 L 8.71875 -6.40625 C 8.71875 -7.476562 8.441406 -8.304688 7.890625 -8.890625 C 7.335938 -9.472656 6.539062 -9.765625 5.5 -9.765625 C 4.445312 -9.765625 3.644531 -9.472656 3.09375 -8.890625 C 2.539062 -8.316406 2.265625 -7.488281 2.265625 -6.40625 L 2.265625 -4.796875 Z M 8.71875 -4.796875 "/></g></g></g><g fill="#000000" fill-opacity="1"><g transform="translate(46.514504, 67.056552)"><g><path d="M 1.765625 0.15625 C 1.597656 0.15625 1.460938 0.101562 1.359375 0 C 1.253906 -0.113281 1.203125 -0.265625 1.203125 -0.453125 L 1.203125 -8.765625 C 1.203125 -9.328125 1.367188 -9.769531 1.703125 -10.09375 C 2.046875 -10.414062 2.519531 -10.578125 3.125 -10.578125 L 7.8125 -10.578125 C 8.207031 -10.578125 8.40625 -10.414062 8.40625 -10.09375 C 8.40625 -9.945312 8.351562 -9.832031 8.25 -9.75 C 8.144531 -9.675781 8 -9.640625 7.8125 -9.640625 L 3.140625 -9.640625 C 2.898438 -9.640625 2.707031 -9.554688 2.5625 -9.390625 C 2.414062 -9.234375 2.34375 -9.023438 2.34375 -8.765625 L 2.34375 -5.71875 L 6.65625 -5.71875 C 7.050781 -5.71875 7.25 -5.5625 7.25 -5.25 C 7.25 -5.09375 7.195312 -4.972656 7.09375 -4.890625 C 6.988281 -4.816406 6.84375 -4.78125 6.65625 -4.78125 L 2.34375 -4.78125 L 2.34375 -0.453125 C 2.34375 -0.265625 2.289062 -0.113281 2.1875 0 C 2.09375 0.101562 1.953125 0.15625 1.765625 0.15625 Z M 1.765625 0.15625 "/></g></g></g><g fill="#000000" fill-opacity="1"><g transform="translate(55.748716, 67.056552)"><g><path d="M 6.1875 0.15625 C 5.175781 0.15625 4.257812 -0.0664062 3.4375 -0.515625 C 2.625 -0.960938 1.984375 -1.597656 1.515625 -2.421875 C 1.046875 -3.253906 0.8125 -4.207031 0.8125 -5.28125 C 0.8125 -6.375 1.046875 -7.332031 1.515625 -8.15625 C 1.984375 -8.976562 2.625 -9.613281 3.4375 -10.0625 C 4.257812 -10.507812 5.175781 -10.734375 6.1875 -10.734375 C 7.207031 -10.734375 8.125 -10.507812 8.9375 -10.0625 C 9.757812 -9.613281 10.40625 -8.976562 10.875 -8.15625 C 11.34375 -7.332031 11.578125 -6.375 11.578125 -5.28125 C 11.578125 -4.207031 11.34375 -3.253906 10.875 -2.421875 C 10.40625 -1.597656 9.757812 -0.960938 8.9375 -0.515625 C 8.125 -0.0664062 7.207031 0.15625 6.1875 0.15625 Z M 6.1875 -0.8125 C 7.007812 -0.8125 7.738281 -0.988281 8.375 -1.34375 C 9.019531 -1.695312 9.523438 -2.207031 9.890625 -2.875 C 10.253906 -3.550781 10.4375 -4.351562 10.4375 -5.28125 C 10.4375 -6.226562 10.25 -7.039062 9.875 -7.71875 C 9.5 -8.394531 8.984375 -8.90625 8.328125 -9.25 C 7.679688 -9.59375 6.960938 -9.765625 6.171875 -9.765625 C 5.359375 -9.765625 4.628906 -9.585938 3.984375 -9.234375 C 3.347656 -8.878906 2.847656 -8.363281 2.484375 -7.6875 C 2.128906 -7.007812 1.953125 -6.207031 1.953125 -5.28125 C 1.953125 -4.351562 2.132812 -3.550781 2.5 -2.875 C 2.863281 -2.207031 3.363281 -1.695312 4 -1.34375 C 4.644531 -0.988281 5.375 -0.8125 6.1875 -0.8125 Z M 6.1875 -0.8125 "/></g></g></g><g fill="#000000" fill-opacity="1"><g transform="translate(68.141602, 67.056552)"><g><path d="M 6.1875 0.15625 C 5.175781 0.15625 4.257812 -0.0664062 3.4375 -0.515625 C 2.625 -0.960938 1.984375 -1.597656 1.515625 -2.421875 C 1.046875 -3.253906 0.8125 -4.207031 0.8125 -5.28125 C 0.8125 -6.375 1.046875 -7.332031 1.515625 -8.15625 C 1.984375 -8.976562 2.625 -9.613281 3.4375 -10.0625 C 4.257812 -10.507812 5.175781 -10.734375 6.1875 -10.734375 C 7.207031 -10.734375 8.125 -10.507812 8.9375 -10.0625 C 9.757812 -9.613281 10.40625 -8.976562 10.875 -8.15625 C 11.34375 -7.332031 11.578125 -6.375 11.578125 -5.28125 C 11.578125 -4.207031 11.34375 -3.253906 10.875 -2.421875 C 10.40625 -1.597656 9.757812 -0.960938 8.9375 -0.515625 C 8.125 -0.0664062 7.207031 0.15625 6.1875 0.15625 Z M 6.1875 -0.8125 C 7.007812 -0.8125 7.738281 -0.988281 8.375 -1.34375 C 9.019531 -1.695312 9.523438 -2.207031 9.890625 -2.875 C 10.253906 -3.550781 10.4375 -4.351562 10.4375 -5.28125 C 10.4375 -6.226562 10.25 -7.039062 9.875 -7.71875 C 9.5 -8.394531 8.984375 -8.90625 8.328125 -9.25 C 7.679688 -9.59375 6.960938 -9.765625 6.171875 -9.765625 C 5.359375 -9.765625 4.628906 -9.585938 3.984375 -9.234375 C 3.347656 -8.878906 2.847656 -8.363281 2.484375 -7.6875 C 2.128906 -7.007812 1.953125 -6.207031 1.953125 -5.28125 C 1.953125 -4.351562 2.132812 -3.550781 2.5 -2.875 C 2.863281 -2.207031 3.363281 -1.695312 4 -1.34375 C 4.644531 -0.988281 5.375 -0.8125 6.1875 -0.8125 Z M 6.1875 -0.8125 "/></g></g></g><g fill="#000000" fill-opacity="1"><g transform="translate(80.534489, 67.056552)"><g><path d="M 3.15625 0 C 2.539062 0 2.0625 -0.160156 1.71875 -0.484375 C 1.375 -0.816406 1.203125 -1.269531 1.203125 -1.84375 L 1.203125 -8.765625 C 1.203125 -9.328125 1.367188 -9.769531 1.703125 -10.09375 C 2.046875 -10.414062 2.519531 -10.578125 3.125 -10.578125 L 5.25 -10.578125 C 6.289062 -10.578125 7.203125 -10.359375 7.984375 -9.921875 C 8.765625 -9.484375 9.363281 -8.863281 9.78125 -8.0625 C 10.207031 -7.269531 10.421875 -6.335938 10.421875 -5.265625 C 10.421875 -4.203125 10.207031 -3.273438 9.78125 -2.484375 C 9.363281 -1.691406 8.765625 -1.078125 7.984375 -0.640625 C 7.203125 -0.210938 6.289062 0 5.25 0 Z M 5.09375 -0.9375 C 6.425781 -0.9375 7.457031 -1.3125 8.1875 -2.0625 C 8.914062 -2.820312 9.28125 -3.890625 9.28125 -5.265625 C 9.28125 -6.648438 8.910156 -7.722656 8.171875 -8.484375 C 7.441406 -9.253906 6.414062 -9.640625 5.09375 -9.640625 L 3.140625 -9.640625 C 2.898438 -9.640625 2.707031 -9.554688 2.5625 -9.390625 C 2.414062 -9.234375 2.34375 -9.023438 2.34375 -8.765625 L 2.34375 -1.8125 C 2.34375 -1.550781 2.414062 -1.335938 2.5625 -1.171875 C 2.707031 -1.015625 2.898438 -0.9375 3.140625 -0.9375 Z M 5.09375 -0.9375 "/></g></g></g><g clip-path="url(#124465b341)"><path fill="#000000" d="M 91.597656 51.679688 C 91.027344 48.503906 88.710938 46.429688 85.378906 45.167969 C 75.75 41.53125 57.226562 44.621094 45.503906 47.457031 L 43.878906 48.960938 C 54.929688 46.222656 74.695312 42.828125 83.890625 46.300781 C 87.164062 47.539062 89.105469 49.679688 88.875 52.90625 C 88.824219 53.59375 89.101562 53.980469 89.535156 54.144531 C 90.089844 54.355469 90.894531 54.09375 91.296875 53.398438 C 91.605469 52.953125 91.734375 52.433594 91.597656 51.679688 Z M 91.597656 51.679688 " fill-opacity="1" fill-rule="nonzero"/></g></svg>